<mxfile host="app.diagrams.net" modified="2023-06-11T04:05:42.978Z" agent="Mozilla/5.0 (Windows NT 10.0; Win64; x64) AppleWebKit/537.36 (KHTML, like Gecko) Chrome/114.0.0.0 Safari/537.36" etag="Rl15geC5s55lnstoOOAv" version="21.3.7" type="github">
  <diagram name="第 1 页" id="ynguHaI6anqF9o0DFnpZ">
    <mxGraphModel dx="2134" dy="914" grid="0" gridSize="10" guides="1" tooltips="1" connect="1" arrows="1" fold="1" page="0" pageScale="1" pageWidth="827" pageHeight="1169" math="0" shadow="0">
      <root>
        <mxCell id="0" />
        <mxCell id="1" parent="0" />
        <mxCell id="WNuXEq5mow0dsCHCeVzA-1" value="" style="rounded=1;whiteSpace=wrap;html=1;" parent="1" vertex="1">
          <mxGeometry x="-106" y="211" width="265" height="473" as="geometry" />
        </mxCell>
        <mxCell id="WNuXEq5mow0dsCHCeVzA-11" value="1" style="edgeStyle=orthogonalEdgeStyle;rounded=0;orthogonalLoop=1;jettySize=auto;html=1;exitX=0.25;exitY=1;exitDx=0;exitDy=0;entryX=0.25;entryY=0;entryDx=0;entryDy=0;strokeWidth=2;" parent="1" source="WNuXEq5mow0dsCHCeVzA-2" target="WNuXEq5mow0dsCHCeVzA-5" edge="1">
          <mxGeometry relative="1" as="geometry" />
        </mxCell>
        <mxCell id="WNuXEq5mow0dsCHCeVzA-2" value="client function" style="rounded=0;whiteSpace=wrap;html=1;fontSize=23;fillColor=#ffe6cc;strokeColor=#d79b00;sketch=1;curveFitting=1;jiggle=2;shadow=0;glass=0;" parent="1" vertex="1">
          <mxGeometry x="-33.5" y="254" width="120" height="60" as="geometry" />
        </mxCell>
        <mxCell id="WNuXEq5mow0dsCHCeVzA-3" value="" style="rounded=1;whiteSpace=wrap;html=1;" parent="1" vertex="1">
          <mxGeometry x="402" y="216" width="259" height="468" as="geometry" />
        </mxCell>
        <mxCell id="WNuXEq5mow0dsCHCeVzA-16" value="6" style="edgeStyle=orthogonalEdgeStyle;rounded=0;orthogonalLoop=1;jettySize=auto;html=1;exitX=0.75;exitY=1;exitDx=0;exitDy=0;entryX=0.75;entryY=0;entryDx=0;entryDy=0;strokeWidth=2;" parent="1" source="WNuXEq5mow0dsCHCeVzA-4" target="WNuXEq5mow0dsCHCeVzA-7" edge="1">
          <mxGeometry relative="1" as="geometry" />
        </mxCell>
        <mxCell id="WNuXEq5mow0dsCHCeVzA-4" value="server function" style="rounded=0;whiteSpace=wrap;html=1;fontSize=23;fillColor=#ffe6cc;strokeColor=#d79b00;sketch=1;curveFitting=1;jiggle=2;shadow=0;glass=0;" parent="1" vertex="1">
          <mxGeometry x="471.5" y="254" width="120" height="60" as="geometry" />
        </mxCell>
        <mxCell id="WNuXEq5mow0dsCHCeVzA-12" value="2" style="edgeStyle=orthogonalEdgeStyle;rounded=0;orthogonalLoop=1;jettySize=auto;html=1;exitX=0.25;exitY=1;exitDx=0;exitDy=0;entryX=0.25;entryY=0;entryDx=0;entryDy=0;strokeWidth=2;" parent="1" source="WNuXEq5mow0dsCHCeVzA-5" target="WNuXEq5mow0dsCHCeVzA-6" edge="1">
          <mxGeometry relative="1" as="geometry" />
        </mxCell>
        <mxCell id="WNuXEq5mow0dsCHCeVzA-20" value="10" style="edgeStyle=orthogonalEdgeStyle;rounded=0;orthogonalLoop=1;jettySize=auto;html=1;exitX=0.75;exitY=0;exitDx=0;exitDy=0;entryX=0.75;entryY=1;entryDx=0;entryDy=0;strokeWidth=2;" parent="1" source="WNuXEq5mow0dsCHCeVzA-5" target="WNuXEq5mow0dsCHCeVzA-2" edge="1">
          <mxGeometry relative="1" as="geometry" />
        </mxCell>
        <mxCell id="WNuXEq5mow0dsCHCeVzA-5" value="client stub" style="rounded=0;whiteSpace=wrap;html=1;fontSize=23;fillColor=#fff2cc;strokeColor=#d6b656;sketch=1;curveFitting=1;jiggle=2;" parent="1" vertex="1">
          <mxGeometry x="-33.5" y="396" width="120" height="60" as="geometry" />
        </mxCell>
        <mxCell id="WNuXEq5mow0dsCHCeVzA-13" style="edgeStyle=orthogonalEdgeStyle;rounded=0;orthogonalLoop=1;jettySize=auto;html=1;exitX=1;exitY=0.25;exitDx=0;exitDy=0;entryX=0;entryY=0.25;entryDx=0;entryDy=0;strokeWidth=2;" parent="1" source="WNuXEq5mow0dsCHCeVzA-6" target="WNuXEq5mow0dsCHCeVzA-8" edge="1">
          <mxGeometry relative="1" as="geometry" />
        </mxCell>
        <mxCell id="WNuXEq5mow0dsCHCeVzA-21" value="3" style="edgeLabel;html=1;align=center;verticalAlign=middle;resizable=0;points=[];" parent="WNuXEq5mow0dsCHCeVzA-13" vertex="1" connectable="0">
          <mxGeometry x="-0.0647" relative="1" as="geometry">
            <mxPoint as="offset" />
          </mxGeometry>
        </mxCell>
        <mxCell id="WNuXEq5mow0dsCHCeVzA-19" value="9" style="edgeStyle=orthogonalEdgeStyle;rounded=0;orthogonalLoop=1;jettySize=auto;html=1;exitX=0.75;exitY=0;exitDx=0;exitDy=0;entryX=0.75;entryY=1;entryDx=0;entryDy=0;strokeWidth=2;" parent="1" source="WNuXEq5mow0dsCHCeVzA-6" target="WNuXEq5mow0dsCHCeVzA-5" edge="1">
          <mxGeometry relative="1" as="geometry" />
        </mxCell>
        <mxCell id="WNuXEq5mow0dsCHCeVzA-6" value="sockets" style="rounded=0;whiteSpace=wrap;html=1;fontSize=23;fillColor=#f8cecc;strokeColor=#b85450;sketch=1;curveFitting=1;jiggle=2;" parent="1" vertex="1">
          <mxGeometry x="-33.5" y="538" width="120" height="60" as="geometry" />
        </mxCell>
        <mxCell id="WNuXEq5mow0dsCHCeVzA-15" value="5" style="edgeStyle=orthogonalEdgeStyle;rounded=0;orthogonalLoop=1;jettySize=auto;html=1;exitX=0.25;exitY=0;exitDx=0;exitDy=0;entryX=0.25;entryY=1;entryDx=0;entryDy=0;strokeWidth=2;" parent="1" source="WNuXEq5mow0dsCHCeVzA-7" target="WNuXEq5mow0dsCHCeVzA-4" edge="1">
          <mxGeometry relative="1" as="geometry" />
        </mxCell>
        <mxCell id="WNuXEq5mow0dsCHCeVzA-17" value="7" style="edgeStyle=orthogonalEdgeStyle;rounded=0;orthogonalLoop=1;jettySize=auto;html=1;exitX=0.75;exitY=1;exitDx=0;exitDy=0;entryX=0.75;entryY=0;entryDx=0;entryDy=0;strokeWidth=2;" parent="1" source="WNuXEq5mow0dsCHCeVzA-7" target="WNuXEq5mow0dsCHCeVzA-8" edge="1">
          <mxGeometry relative="1" as="geometry" />
        </mxCell>
        <mxCell id="WNuXEq5mow0dsCHCeVzA-7" value="client stub" style="rounded=0;whiteSpace=wrap;html=1;fontSize=23;fillColor=#fff2cc;strokeColor=#d6b656;sketch=1;curveFitting=1;jiggle=2;" parent="1" vertex="1">
          <mxGeometry x="471.5" y="396" width="120" height="60" as="geometry" />
        </mxCell>
        <mxCell id="WNuXEq5mow0dsCHCeVzA-14" value="4" style="edgeStyle=orthogonalEdgeStyle;rounded=0;orthogonalLoop=1;jettySize=auto;html=1;exitX=0.25;exitY=0;exitDx=0;exitDy=0;entryX=0.25;entryY=1;entryDx=0;entryDy=0;strokeWidth=2;" parent="1" source="WNuXEq5mow0dsCHCeVzA-8" target="WNuXEq5mow0dsCHCeVzA-7" edge="1">
          <mxGeometry relative="1" as="geometry" />
        </mxCell>
        <mxCell id="WNuXEq5mow0dsCHCeVzA-18" value="8" style="edgeStyle=orthogonalEdgeStyle;rounded=0;orthogonalLoop=1;jettySize=auto;html=1;exitX=0;exitY=0.75;exitDx=0;exitDy=0;entryX=1;entryY=0.75;entryDx=0;entryDy=0;strokeWidth=2;" parent="1" source="WNuXEq5mow0dsCHCeVzA-8" target="WNuXEq5mow0dsCHCeVzA-6" edge="1">
          <mxGeometry relative="1" as="geometry" />
        </mxCell>
        <mxCell id="WNuXEq5mow0dsCHCeVzA-8" value="sockets" style="rounded=0;whiteSpace=wrap;html=1;fontSize=23;fillColor=#f8cecc;strokeColor=#b85450;sketch=1;curveFitting=1;jiggle=2;" parent="1" vertex="1">
          <mxGeometry x="471.5" y="538" width="120" height="60" as="geometry" />
        </mxCell>
        <mxCell id="WNuXEq5mow0dsCHCeVzA-9" value="Client" style="text;html=1;strokeColor=none;fillColor=none;align=center;verticalAlign=middle;whiteSpace=wrap;rounded=0;fontSize=23;" parent="1" vertex="1">
          <mxGeometry x="-3.5" y="654" width="60" height="30" as="geometry" />
        </mxCell>
        <mxCell id="WNuXEq5mow0dsCHCeVzA-10" value="Server" style="text;html=1;strokeColor=none;fillColor=none;align=center;verticalAlign=middle;whiteSpace=wrap;rounded=0;fontSize=23;" parent="1" vertex="1">
          <mxGeometry x="501.5" y="654" width="60" height="30" as="geometry" />
        </mxCell>
        <mxCell id="WNuXEq5mow0dsCHCeVzA-22" value="" style="endArrow=none;dashed=1;html=1;dashPattern=1 3;strokeWidth=2;rounded=0;" parent="1" edge="1">
          <mxGeometry width="50" height="50" relative="1" as="geometry">
            <mxPoint x="-80.5" y="515" as="sourcePoint" />
            <mxPoint x="133.5" y="515" as="targetPoint" />
          </mxGeometry>
        </mxCell>
        <mxCell id="WNuXEq5mow0dsCHCeVzA-23" value="" style="endArrow=none;dashed=1;html=1;dashPattern=1 3;strokeWidth=2;rounded=0;" parent="1" edge="1">
          <mxGeometry width="50" height="50" relative="1" as="geometry">
            <mxPoint x="424.5" y="516" as="sourcePoint" />
            <mxPoint x="638.5" y="516" as="targetPoint" />
          </mxGeometry>
        </mxCell>
        <mxCell id="WNuXEq5mow0dsCHCeVzA-24" value="&lt;font style=&quot;font-size: 23px;&quot;&gt;ketnel&lt;/font&gt;" style="text;html=1;strokeColor=none;fillColor=none;align=center;verticalAlign=middle;whiteSpace=wrap;rounded=0;" parent="1" vertex="1">
          <mxGeometry x="-100" y="557" width="60" height="30" as="geometry" />
        </mxCell>
        <mxCell id="WNuXEq5mow0dsCHCeVzA-25" value="&lt;font style=&quot;font-size: 23px;&quot;&gt;ketnel&lt;/font&gt;" style="text;html=1;strokeColor=none;fillColor=none;align=center;verticalAlign=middle;whiteSpace=wrap;rounded=0;" parent="1" vertex="1">
          <mxGeometry x="597" y="557" width="60" height="30" as="geometry" />
        </mxCell>
        <mxCell id="0BuADrquEKOu1tJ5kKiF-7" value="Client" style="shape=umlLifeline;perimeter=lifelinePerimeter;whiteSpace=wrap;html=1;container=1;dropTarget=0;collapsible=0;recursiveResize=0;outlineConnect=0;portConstraint=eastwest;newEdgeStyle={&quot;edgeStyle&quot;:&quot;elbowEdgeStyle&quot;,&quot;elbow&quot;:&quot;vertical&quot;,&quot;curved&quot;:0,&quot;rounded&quot;:0};fontSize=23;fillColor=#ffe6cc;strokeColor=#d79b00;shadow=0;sketch=1;curveFitting=1;jiggle=2;" vertex="1" parent="1">
          <mxGeometry x="-323" y="936" width="121" height="864" as="geometry" />
        </mxCell>
        <mxCell id="0BuADrquEKOu1tJ5kKiF-42" value="" style="html=1;points=[];perimeter=orthogonalPerimeter;outlineConnect=0;targetShapes=umlLifeline;portConstraint=eastwest;newEdgeStyle={&quot;edgeStyle&quot;:&quot;elbowEdgeStyle&quot;,&quot;elbow&quot;:&quot;vertical&quot;,&quot;curved&quot;:0,&quot;rounded&quot;:0};" vertex="1" parent="0BuADrquEKOu1tJ5kKiF-7">
          <mxGeometry x="56" y="69" width="10" height="772" as="geometry" />
        </mxCell>
        <mxCell id="0BuADrquEKOu1tJ5kKiF-15" value="Client stub" style="shape=umlLifeline;perimeter=lifelinePerimeter;whiteSpace=wrap;html=1;container=1;dropTarget=0;collapsible=0;recursiveResize=0;outlineConnect=0;portConstraint=eastwest;newEdgeStyle={&quot;edgeStyle&quot;:&quot;elbowEdgeStyle&quot;,&quot;elbow&quot;:&quot;vertical&quot;,&quot;curved&quot;:0,&quot;rounded&quot;:0};fontSize=23;fillColor=#fff2cc;strokeColor=#d6b656;sketch=1;curveFitting=1;jiggle=2;" vertex="1" parent="1">
          <mxGeometry x="-23" y="936" width="160" height="831" as="geometry" />
        </mxCell>
        <mxCell id="0BuADrquEKOu1tJ5kKiF-43" value="" style="html=1;points=[];perimeter=orthogonalPerimeter;outlineConnect=0;targetShapes=umlLifeline;portConstraint=eastwest;newEdgeStyle={&quot;edgeStyle&quot;:&quot;elbowEdgeStyle&quot;,&quot;elbow&quot;:&quot;vertical&quot;,&quot;curved&quot;:0,&quot;rounded&quot;:0};" vertex="1" parent="0BuADrquEKOu1tJ5kKiF-15">
          <mxGeometry x="75" y="102" width="10" height="713" as="geometry" />
        </mxCell>
        <mxCell id="0BuADrquEKOu1tJ5kKiF-16" value="Servera&amp;nbsp;stub" style="shape=umlLifeline;perimeter=lifelinePerimeter;whiteSpace=wrap;html=1;container=1;dropTarget=0;collapsible=0;recursiveResize=0;outlineConnect=0;portConstraint=eastwest;newEdgeStyle={&quot;edgeStyle&quot;:&quot;elbowEdgeStyle&quot;,&quot;elbow&quot;:&quot;vertical&quot;,&quot;curved&quot;:0,&quot;rounded&quot;:0};fontSize=23;fillColor=#f8cecc;strokeColor=#b85450;sketch=1;curveFitting=1;jiggle=2;" vertex="1" parent="1">
          <mxGeometry x="265" y="936" width="152" height="736" as="geometry" />
        </mxCell>
        <mxCell id="0BuADrquEKOu1tJ5kKiF-49" value="" style="html=1;points=[];perimeter=orthogonalPerimeter;outlineConnect=0;targetShapes=umlLifeline;portConstraint=eastwest;newEdgeStyle={&quot;edgeStyle&quot;:&quot;elbowEdgeStyle&quot;,&quot;elbow&quot;:&quot;vertical&quot;,&quot;curved&quot;:0,&quot;rounded&quot;:0};" vertex="1" parent="0BuADrquEKOu1tJ5kKiF-16">
          <mxGeometry x="71" y="180" width="10" height="556" as="geometry" />
        </mxCell>
        <mxCell id="0BuADrquEKOu1tJ5kKiF-17" value="Server" style="shape=umlLifeline;perimeter=lifelinePerimeter;whiteSpace=wrap;html=1;container=1;dropTarget=0;collapsible=0;recursiveResize=0;outlineConnect=0;portConstraint=eastwest;newEdgeStyle={&quot;edgeStyle&quot;:&quot;elbowEdgeStyle&quot;,&quot;elbow&quot;:&quot;vertical&quot;,&quot;curved&quot;:0,&quot;rounded&quot;:0};fontSize=23;fillColor=#e1d5e7;strokeColor=#9673a6;sketch=1;curveFitting=1;jiggle=2;" vertex="1" parent="1">
          <mxGeometry x="565.5" y="936" width="123" height="650" as="geometry" />
        </mxCell>
        <mxCell id="0BuADrquEKOu1tJ5kKiF-56" value="" style="html=1;points=[];perimeter=orthogonalPerimeter;outlineConnect=0;targetShapes=umlLifeline;portConstraint=eastwest;newEdgeStyle={&quot;edgeStyle&quot;:&quot;elbowEdgeStyle&quot;,&quot;elbow&quot;:&quot;vertical&quot;,&quot;curved&quot;:0,&quot;rounded&quot;:0};" vertex="1" parent="0BuADrquEKOu1tJ5kKiF-17">
          <mxGeometry x="56.5" y="220" width="10" height="384" as="geometry" />
        </mxCell>
        <mxCell id="0BuADrquEKOu1tJ5kKiF-59" style="edgeStyle=elbowEdgeStyle;rounded=0;orthogonalLoop=1;jettySize=auto;html=1;elbow=vertical;curved=0;" edge="1" parent="0BuADrquEKOu1tJ5kKiF-17" source="0BuADrquEKOu1tJ5kKiF-56" target="0BuADrquEKOu1tJ5kKiF-56">
          <mxGeometry relative="1" as="geometry">
            <Array as="points">
              <mxPoint x="148" y="410" />
            </Array>
          </mxGeometry>
        </mxCell>
        <mxCell id="0BuADrquEKOu1tJ5kKiF-60" value="&lt;font style=&quot;font-size: 18px;&quot;&gt;6、服务处理&lt;/font&gt;" style="edgeLabel;html=1;align=center;verticalAlign=middle;resizable=0;points=[];" vertex="1" connectable="0" parent="0BuADrquEKOu1tJ5kKiF-59">
          <mxGeometry x="-0.4547" relative="1" as="geometry">
            <mxPoint x="19" y="-18" as="offset" />
          </mxGeometry>
        </mxCell>
        <mxCell id="0BuADrquEKOu1tJ5kKiF-47" style="edgeStyle=elbowEdgeStyle;rounded=0;orthogonalLoop=1;jettySize=auto;html=1;elbow=vertical;curved=0;" edge="1" parent="1" source="0BuADrquEKOu1tJ5kKiF-42" target="0BuADrquEKOu1tJ5kKiF-43">
          <mxGeometry relative="1" as="geometry">
            <Array as="points">
              <mxPoint x="-37" y="1065" />
              <mxPoint x="-97" y="1097" />
            </Array>
          </mxGeometry>
        </mxCell>
        <mxCell id="0BuADrquEKOu1tJ5kKiF-48" value="&lt;font style=&quot;font-size: 18px;&quot;&gt;1、客户端调用&lt;/font&gt;" style="edgeLabel;html=1;align=center;verticalAlign=middle;resizable=0;points=[];" vertex="1" connectable="0" parent="0BuADrquEKOu1tJ5kKiF-47">
          <mxGeometry x="0.1084" relative="1" as="geometry">
            <mxPoint x="-28" y="-16" as="offset" />
          </mxGeometry>
        </mxCell>
        <mxCell id="0BuADrquEKOu1tJ5kKiF-52" style="edgeStyle=elbowEdgeStyle;rounded=0;orthogonalLoop=1;jettySize=auto;html=1;elbow=vertical;curved=0;" edge="1" parent="1" source="0BuADrquEKOu1tJ5kKiF-43" target="0BuADrquEKOu1tJ5kKiF-49">
          <mxGeometry relative="1" as="geometry">
            <Array as="points">
              <mxPoint x="262" y="1177" />
            </Array>
          </mxGeometry>
        </mxCell>
        <mxCell id="0BuADrquEKOu1tJ5kKiF-53" value="&lt;font style=&quot;font-size: 18px;&quot;&gt;3、发送消息（通信）&lt;/font&gt;" style="edgeLabel;html=1;align=center;verticalAlign=middle;resizable=0;points=[];" vertex="1" connectable="0" parent="0BuADrquEKOu1tJ5kKiF-52">
          <mxGeometry x="-0.0547" relative="1" as="geometry">
            <mxPoint y="16" as="offset" />
          </mxGeometry>
        </mxCell>
        <mxCell id="0BuADrquEKOu1tJ5kKiF-57" style="edgeStyle=elbowEdgeStyle;rounded=0;orthogonalLoop=1;jettySize=auto;html=1;elbow=vertical;curved=0;" edge="1" parent="1" source="0BuADrquEKOu1tJ5kKiF-49" target="0BuADrquEKOu1tJ5kKiF-56">
          <mxGeometry relative="1" as="geometry">
            <Array as="points">
              <mxPoint x="559" y="1308" />
              <mxPoint x="513" y="1437" />
              <mxPoint x="519" y="1308" />
            </Array>
          </mxGeometry>
        </mxCell>
        <mxCell id="0BuADrquEKOu1tJ5kKiF-58" value="&lt;font style=&quot;font-size: 18px;&quot;&gt;5、调用本地服务&lt;/font&gt;" style="edgeLabel;html=1;align=center;verticalAlign=middle;resizable=0;points=[];" vertex="1" connectable="0" parent="0BuADrquEKOu1tJ5kKiF-57">
          <mxGeometry x="0.0499" y="-4" relative="1" as="geometry">
            <mxPoint x="-8" y="-19" as="offset" />
          </mxGeometry>
        </mxCell>
        <mxCell id="0BuADrquEKOu1tJ5kKiF-67" style="edgeStyle=elbowEdgeStyle;rounded=0;orthogonalLoop=1;jettySize=auto;html=1;elbow=vertical;curved=0;dashed=1;" edge="1" parent="1" source="0BuADrquEKOu1tJ5kKiF-56" target="0BuADrquEKOu1tJ5kKiF-49">
          <mxGeometry relative="1" as="geometry">
            <Array as="points">
              <mxPoint x="566" y="1424" />
              <mxPoint x="513" y="1503" />
            </Array>
          </mxGeometry>
        </mxCell>
        <mxCell id="0BuADrquEKOu1tJ5kKiF-68" value="&lt;font style=&quot;font-size: 18px;&quot;&gt;7、返回处理结果&lt;/font&gt;" style="edgeLabel;html=1;align=center;verticalAlign=middle;resizable=0;points=[];" vertex="1" connectable="0" parent="0BuADrquEKOu1tJ5kKiF-67">
          <mxGeometry x="-0.2438" y="-1" relative="1" as="geometry">
            <mxPoint x="-16" y="-13" as="offset" />
          </mxGeometry>
        </mxCell>
        <mxCell id="0BuADrquEKOu1tJ5kKiF-80" value="" style="group" vertex="1" connectable="0" parent="1">
          <mxGeometry x="62" y="1108" width="64" height="32" as="geometry" />
        </mxCell>
        <mxCell id="0BuADrquEKOu1tJ5kKiF-77" value="" style="endArrow=classic;html=1;rounded=0;" edge="1" parent="0BuADrquEKOu1tJ5kKiF-80">
          <mxGeometry width="50" height="50" relative="1" as="geometry">
            <mxPoint x="64" y="31" as="sourcePoint" />
            <mxPoint y="32" as="targetPoint" />
          </mxGeometry>
        </mxCell>
        <mxCell id="0BuADrquEKOu1tJ5kKiF-78" value="" style="endArrow=none;html=1;rounded=0;" edge="1" parent="0BuADrquEKOu1tJ5kKiF-80">
          <mxGeometry width="50" height="50" relative="1" as="geometry">
            <mxPoint as="sourcePoint" />
            <mxPoint x="64" as="targetPoint" />
          </mxGeometry>
        </mxCell>
        <mxCell id="0BuADrquEKOu1tJ5kKiF-79" value="" style="endArrow=none;html=1;rounded=0;" edge="1" parent="0BuADrquEKOu1tJ5kKiF-80">
          <mxGeometry width="50" height="50" relative="1" as="geometry">
            <mxPoint x="64" y="31" as="sourcePoint" />
            <mxPoint x="64" as="targetPoint" />
          </mxGeometry>
        </mxCell>
        <mxCell id="0BuADrquEKOu1tJ5kKiF-81" value="&lt;font style=&quot;font-size: 18px;&quot;&gt;2、序列化&lt;/font&gt;" style="text;html=1;strokeColor=none;fillColor=none;align=center;verticalAlign=middle;whiteSpace=wrap;rounded=0;" vertex="1" parent="1">
          <mxGeometry x="76" y="1083" width="103" height="23" as="geometry" />
        </mxCell>
        <mxCell id="0BuADrquEKOu1tJ5kKiF-84" value="" style="group" vertex="1" connectable="0" parent="1">
          <mxGeometry x="346" y="1209" width="64" height="32" as="geometry" />
        </mxCell>
        <mxCell id="0BuADrquEKOu1tJ5kKiF-85" value="" style="endArrow=classic;html=1;rounded=0;" edge="1" parent="0BuADrquEKOu1tJ5kKiF-84">
          <mxGeometry width="50" height="50" relative="1" as="geometry">
            <mxPoint x="64" y="31" as="sourcePoint" />
            <mxPoint y="32" as="targetPoint" />
          </mxGeometry>
        </mxCell>
        <mxCell id="0BuADrquEKOu1tJ5kKiF-86" value="" style="endArrow=none;html=1;rounded=0;" edge="1" parent="0BuADrquEKOu1tJ5kKiF-84">
          <mxGeometry width="50" height="50" relative="1" as="geometry">
            <mxPoint as="sourcePoint" />
            <mxPoint x="64" as="targetPoint" />
          </mxGeometry>
        </mxCell>
        <mxCell id="0BuADrquEKOu1tJ5kKiF-87" value="" style="endArrow=none;html=1;rounded=0;" edge="1" parent="0BuADrquEKOu1tJ5kKiF-84">
          <mxGeometry width="50" height="50" relative="1" as="geometry">
            <mxPoint x="64" y="31" as="sourcePoint" />
            <mxPoint x="64" as="targetPoint" />
          </mxGeometry>
        </mxCell>
        <mxCell id="0BuADrquEKOu1tJ5kKiF-88" value="&lt;font style=&quot;font-size: 18px;&quot;&gt;4、反序列化&lt;/font&gt;" style="text;html=1;strokeColor=none;fillColor=none;align=center;verticalAlign=middle;whiteSpace=wrap;rounded=0;" vertex="1" parent="1">
          <mxGeometry x="358" y="1180" width="113" height="25" as="geometry" />
        </mxCell>
        <mxCell id="0BuADrquEKOu1tJ5kKiF-90" value="" style="group" vertex="1" connectable="0" parent="1">
          <mxGeometry x="346" y="1493" width="64" height="32" as="geometry" />
        </mxCell>
        <mxCell id="0BuADrquEKOu1tJ5kKiF-91" value="" style="endArrow=classic;html=1;rounded=0;" edge="1" parent="0BuADrquEKOu1tJ5kKiF-90">
          <mxGeometry width="50" height="50" relative="1" as="geometry">
            <mxPoint x="64" y="31" as="sourcePoint" />
            <mxPoint y="32" as="targetPoint" />
          </mxGeometry>
        </mxCell>
        <mxCell id="0BuADrquEKOu1tJ5kKiF-92" value="" style="endArrow=none;html=1;rounded=0;" edge="1" parent="0BuADrquEKOu1tJ5kKiF-90">
          <mxGeometry width="50" height="50" relative="1" as="geometry">
            <mxPoint as="sourcePoint" />
            <mxPoint x="64" as="targetPoint" />
          </mxGeometry>
        </mxCell>
        <mxCell id="0BuADrquEKOu1tJ5kKiF-93" value="" style="endArrow=none;html=1;rounded=0;" edge="1" parent="0BuADrquEKOu1tJ5kKiF-90">
          <mxGeometry width="50" height="50" relative="1" as="geometry">
            <mxPoint x="64" y="31" as="sourcePoint" />
            <mxPoint x="64" as="targetPoint" />
          </mxGeometry>
        </mxCell>
        <mxCell id="0BuADrquEKOu1tJ5kKiF-94" value="&lt;font style=&quot;font-size: 18px;&quot;&gt;8、将结果序列化&lt;/font&gt;" style="text;html=1;strokeColor=none;fillColor=none;align=center;verticalAlign=middle;whiteSpace=wrap;rounded=0;" vertex="1" parent="1">
          <mxGeometry x="358" y="1463" width="164" height="28" as="geometry" />
        </mxCell>
        <mxCell id="0BuADrquEKOu1tJ5kKiF-95" style="edgeStyle=elbowEdgeStyle;rounded=0;orthogonalLoop=1;jettySize=auto;html=1;elbow=vertical;curved=0;dashed=1;" edge="1" parent="1" source="0BuADrquEKOu1tJ5kKiF-49" target="0BuADrquEKOu1tJ5kKiF-43">
          <mxGeometry relative="1" as="geometry">
            <Array as="points">
              <mxPoint x="228" y="1563" />
            </Array>
          </mxGeometry>
        </mxCell>
        <mxCell id="0BuADrquEKOu1tJ5kKiF-96" value="&lt;font style=&quot;font-size: 18px;&quot;&gt;9、返回消息&lt;/font&gt;" style="edgeLabel;html=1;align=center;verticalAlign=middle;resizable=0;points=[];" vertex="1" connectable="0" parent="0BuADrquEKOu1tJ5kKiF-95">
          <mxGeometry x="-0.076" y="-1" relative="1" as="geometry">
            <mxPoint x="-1" y="-15" as="offset" />
          </mxGeometry>
        </mxCell>
        <mxCell id="0BuADrquEKOu1tJ5kKiF-97" value="" style="group" vertex="1" connectable="0" parent="1">
          <mxGeometry x="62" y="1620" width="64" height="32" as="geometry" />
        </mxCell>
        <mxCell id="0BuADrquEKOu1tJ5kKiF-98" value="" style="endArrow=classic;html=1;rounded=0;" edge="1" parent="0BuADrquEKOu1tJ5kKiF-97">
          <mxGeometry width="50" height="50" relative="1" as="geometry">
            <mxPoint x="64" y="31" as="sourcePoint" />
            <mxPoint y="32" as="targetPoint" />
          </mxGeometry>
        </mxCell>
        <mxCell id="0BuADrquEKOu1tJ5kKiF-99" value="" style="endArrow=none;html=1;rounded=0;" edge="1" parent="0BuADrquEKOu1tJ5kKiF-97">
          <mxGeometry width="50" height="50" relative="1" as="geometry">
            <mxPoint as="sourcePoint" />
            <mxPoint x="64" as="targetPoint" />
          </mxGeometry>
        </mxCell>
        <mxCell id="0BuADrquEKOu1tJ5kKiF-100" value="" style="endArrow=none;html=1;rounded=0;" edge="1" parent="0BuADrquEKOu1tJ5kKiF-97">
          <mxGeometry width="50" height="50" relative="1" as="geometry">
            <mxPoint x="64" y="31" as="sourcePoint" />
            <mxPoint x="64" as="targetPoint" />
          </mxGeometry>
        </mxCell>
        <mxCell id="0BuADrquEKOu1tJ5kKiF-101" value="&lt;font style=&quot;font-size: 18px;&quot;&gt;10、反序列化&lt;/font&gt;" style="text;html=1;strokeColor=none;fillColor=none;align=center;verticalAlign=middle;whiteSpace=wrap;rounded=0;" vertex="1" parent="1">
          <mxGeometry x="70" y="1588" width="164" height="28" as="geometry" />
        </mxCell>
        <mxCell id="0BuADrquEKOu1tJ5kKiF-103" style="edgeStyle=elbowEdgeStyle;rounded=0;orthogonalLoop=1;jettySize=auto;html=1;elbow=vertical;curved=0;dashed=1;" edge="1" parent="1" source="0BuADrquEKOu1tJ5kKiF-43" target="0BuADrquEKOu1tJ5kKiF-42">
          <mxGeometry relative="1" as="geometry">
            <Array as="points">
              <mxPoint x="-10" y="1688" />
            </Array>
          </mxGeometry>
        </mxCell>
        <mxCell id="0BuADrquEKOu1tJ5kKiF-104" value="&lt;font style=&quot;font-size: 18px;&quot;&gt;11、返回调用结果&lt;/font&gt;" style="edgeLabel;html=1;align=center;verticalAlign=middle;resizable=0;points=[];" vertex="1" connectable="0" parent="0BuADrquEKOu1tJ5kKiF-103">
          <mxGeometry x="-0.0574" y="1" relative="1" as="geometry">
            <mxPoint x="-2" y="-16" as="offset" />
          </mxGeometry>
        </mxCell>
      </root>
    </mxGraphModel>
  </diagram>
</mxfile>
